<?xml version="1.0" standalone="no"?>
<!DOCTYPE svg PUBLIC "-//W3C//DTD SVG 20010904//EN"
 "http://www.w3.org/TR/2001/REC-SVG-20010904/DTD/svg10.dtd">
<svg version="1.0" xmlns="http://www.w3.org/2000/svg"
 width="100.000000pt" height="100.000000pt" viewBox="0 0 100.000000 100.000000"
 preserveAspectRatio="xMidYMid meet">
<metadata>
Created by potrace 1.11, written by Peter Selinger 2001-2013
</metadata>
<g transform="translate(0.000000,100.000000) scale(0.100000,-0.100000)"
fill="#000000" stroke="none">
<path d="M70 660 c0 -4 38 -81 84 -171 l85 -164 65 -1 c39 -1 69 3 74 10 11
13 172 323 172 329 0 7 -104 2 -115 -5 -6 -4 -35 -56 -65 -117 -30 -61 -58
-111 -61 -111 -4 0 -35 54 -69 119 l-63 120 -53 -1 c-30 -1 -54 -5 -54 -8z"/>
<path d="M553 521 c-41 -80 -82 -156 -89 -168 -8 -12 -14 -24 -14 -26 0 -8
110 -1 118 8 6 6 35 57 65 115 31 58 59 104 63 103 4 -1 31 -48 60 -105 29
-56 57 -108 63 -115 12 -14 105 -12 108 2 1 8 -151 309 -164 325 -2 2 -33 5
-69 6 l-64 1 -77 -146z"/>
</g>
</svg>
